<?xml version="1.0" standalone="no"?>
<!DOCTYPE svg PUBLIC "-//W3C//DTD SVG 20010904//EN"
 "http://www.w3.org/TR/2001/REC-SVG-20010904/DTD/svg10.dtd">
<svg version="1.0" xmlns="http://www.w3.org/2000/svg"
 width="1000.000000pt" height="1000.000000pt" viewBox="0 0 1000.000000 1000.000000"
 preserveAspectRatio="xMidYMid meet">
<metadata>
Created by potrace 1.16, written by Peter Selinger 2001-2019
</metadata>
<g transform="translate(0.000000,1000.000000) scale(0.100000,-0.100000)"
fill="#000000" stroke="none">
<path d="M4414 8157 l-610 -402 87 -5 88 -5 -342 -225 c-188 -124 -443 -291
-566 -372 l-224 -148 189 0 189 0 567 373 566 372 -183 5 -183 5 520 341 519
342 519 -342 519 -341 -182 -5 -182 -5 567 -373 566 -372 185 2 186 3 -563
370 -563 370 88 5 88 5 -609 400 c-335 220 -612 401 -617 402 -4 1 -283 -179
-619 -400z"/>
<path d="M4695 7967 l-321 -212 328 -3 c180 -1 476 -1 657 0 l330 3 -324 213
c-179 116 -330 212 -337 211 -7 0 -157 -96 -333 -212z"/>
<path d="M1380 7375 l0 -375 638 0 637 0 495 326 c272 179 529 347 570 374
l75 50 -1207 0 -1208 0 0 -375z"/>
<path d="M6280 7746 c0 -2 254 -171 564 -375 l564 -371 606 0 606 0 0 375 0
375 -1170 0 c-643 0 -1170 -2 -1170 -4z"/>
<path d="M3260 6784 c-388 -256 -1162 -765 -1720 -1131 -558 -366 -1020 -671
-1027 -677 -8 -8 33 -40 165 -126 181 -117 1554 -1019 2652 -1741 338 -223
621 -408 628 -413 7 -4 54 20 121 64 l110 71 73 -48 c40 -27 90 -59 110 -71
l36 -23 296 195 296 195 296 -195 295 -195 37 22 c20 13 70 45 110 72 l73 48
110 -71 c65 -42 115 -68 122 -63 12 7 743 488 2550 1675 493 325 897 593 897
597 -1 5 -338 228 -2673 1763 l-787 518 -105 -70 c-57 -38 -108 -70 -112 -70
-4 0 -55 31 -112 70 -58 38 -109 66 -115 63 -6 -4 -140 -91 -298 -195 l-288
-189 -287 189 c-159 103 -293 191 -299 195 -6 3 -57 -25 -115 -63 -57 -39
-108 -70 -112 -70 -4 0 -55 32 -112 70 -57 39 -106 70 -107 69 -2 0 -320 -209
-708 -465z m795 335 c42 -27 76 -51 74 -53 -2 -1 -294 -193 -649 -427 -355
-233 -1002 -658 -1439 -945 l-793 -522 -79 50 c-43 28 -79 53 -79 57 0 3 215
147 478 318 262 172 907 596 1432 942 525 346 960 630 966 630 6 1 46 -22 89
-50z m2712 -427 c1686 -1109 2089 -1374 2100 -1385 9 -9 -6 -24 -66 -64 l-79
-52 -623 411 c-729 479 -1942 1277 -2113 1389 l-118 78 77 51 c43 27 81 50 86
50 5 0 336 -215 736 -478z m-1209 -412 l542 -335 -256 -3 -256 -2 -282 178
c-154 98 -287 182 -294 186 -8 5 -120 -60 -307 -178 l-293 -186 -256 2 -256 3
543 337 c298 185 549 336 558 335 9 -1 259 -153 557 -337z m-1008 -1234 l0
-304 30 -11 c17 -5 30 -17 30 -25 0 -14 -18 -16 -120 -16 -101 0 -120 2 -120
15 0 9 11 21 25 27 l25 11 0 269 0 269 -30 6 c-21 4 -30 11 -28 22 3 17 82 38
151 40 l37 1 0 -304z m1150 0 l0 -304 30 -11 c17 -5 30 -17 30 -25 0 -14 -18
-16 -120 -16 -101 0 -120 2 -120 15 0 9 11 21 25 27 l25 11 0 269 0 269 -30 6
c-21 4 -30 11 -28 22 3 17 82 38 151 40 l37 1 0 -304z m1090 4 l0 -300 30 -6
c70 -14 18 -47 -97 -60 l-51 -7 -7 47 -7 47 -19 -30 c-52 -86 -186 -80 -247
12 -22 33 -27 53 -30 127 -4 78 -1 94 21 142 39 86 112 125 218 115 l59 -5 0
73 0 74 -35 7 c-39 7 -47 31 -12 39 50 12 114 23 145 24 l32 1 0 -300z m268
274 c15 -10 22 -25 22 -49 0 -60 -85 -90 -130 -45 -62 62 34 146 108 94z
m-1674 -23 c28 -11 28 -12 22 -74 -10 -91 -16 -107 -37 -107 -13 0 -24 16 -40
60 -28 78 -37 84 -105 77 -115 -12 -168 -89 -169 -247 0 -116 19 -173 75 -224
44 -39 92 -52 147 -39 l38 9 0 88 0 89 -35 12 c-19 6 -36 19 -38 28 -3 15 10
17 116 17 97 0 121 -3 126 -15 3 -10 -5 -20 -24 -30 -29 -15 -29 -16 -32 -118
l-3 -102 -55 -18 c-83 -28 -184 -33 -255 -12 -143 41 -208 137 -207 305 0 160
61 254 195 302 42 15 72 18 152 14 55 -2 113 -9 129 -15z m-2770 -7 c4 -11 -4
-19 -29 -30 l-35 -14 0 -105 0 -105 115 0 115 0 0 108 0 108 -30 11 c-16 6
-30 18 -30 27 0 14 18 16 136 16 124 0 135 -2 132 -17 -2 -10 -18 -22 -36 -28
l-32 -9 0 -256 0 -256 32 -9 c18 -6 34 -18 36 -27 3 -16 -8 -18 -132 -18 -118
0 -136 2 -136 16 0 9 14 21 30 27 l30 11 0 118 0 118 -115 0 -115 0 0 -115 0
-115 35 -14 c25 -11 33 -19 29 -30 -9 -24 -264 -24 -264 0 0 8 16 22 35 30
l35 14 0 250 0 250 -35 14 c-19 8 -35 22 -35 30 0 24 255 24 264 0z m1107 -66
c1 -7 2 -31 3 -53 l1 -40 58 -3 c56 -3 57 -4 57 -32 0 -30 0 -30 -59 -30 l-58
0 2 -117 c3 -167 3 -170 22 -188 13 -14 28 -16 66 -12 41 5 48 4 45 -10 -10
-55 -184 -82 -230 -35 -22 21 -23 31 -26 192 l-3 170 -35 0 c-48 0 -48 34 0
57 29 13 35 22 38 52 3 31 8 38 38 48 46 16 80 16 81 1z m-366 -99 c96 -26
149 -104 149 -220 0 -90 -32 -152 -99 -194 -44 -27 -56 -30 -135 -30 -79 0
-91 3 -135 30 -62 39 -88 88 -93 178 -5 83 14 139 62 186 58 56 157 76 251 50z
m865 -11 c64 -33 82 -63 88 -147 l5 -71 -141 0 -140 0 10 -42 c19 -89 101
-128 198 -94 58 20 73 6 32 -32 -78 -73 -235 -69 -312 8 -43 43 -60 95 -60
181 1 105 52 183 137 209 56 17 136 11 183 -12z m1755 -152 c0 -157 2 -176 19
-195 23 -25 53 -27 85 -5 39 28 51 73 51 193 l0 109 -31 7 c-21 5 -29 12 -27
23 3 18 80 39 146 41 l32 1 0 -194 0 -194 31 -7 c21 -5 29 -12 27 -23 -2 -12
-23 -21 -74 -31 -93 -19 -104 -14 -104 45 l0 47 -23 -34 c-32 -48 -81 -71
-139 -66 -105 9 -135 74 -124 268 l6 117 -30 7 c-22 5 -30 12 -28 23 3 17 81
39 148 41 l35 1 0 -174z m1095 -24 l0 -198 30 -11 c17 -6 30 -18 30 -27 0 -14
-17 -16 -120 -16 -101 0 -120 2 -120 15 0 9 11 21 25 27 l25 11 0 163 0 164
-26 6 c-16 4 -24 12 -22 23 3 17 81 38 146 40 l32 1 0 -198z m425 187 c96 -26
149 -104 149 -220 0 -90 -32 -152 -99 -194 -44 -27 -56 -30 -135 -30 -79 0
-91 3 -135 30 -62 39 -88 88 -93 178 -5 83 14 139 62 186 58 56 157 76 251 50z
m-5574 -806 c360 -237 933 -614 1274 -838 341 -225 691 -455 778 -512 l159
-104 -82 -53 -83 -53 -221 145 c-121 80 -536 353 -921 606 -385 254 -933 614
-1217 801 -285 187 -518 342 -518 345 0 12 146 99 161 96 9 -2 310 -197 670
-433z m6883 370 c42 -27 76 -50 76 -53 0 -3 -247 -167 -548 -365 -301 -198
-756 -497 -1012 -666 -256 -168 -650 -427 -876 -576 l-412 -270 -82 52 -83 53
159 104 c229 151 1464 963 2123 1397 310 204 567 371 572 371 4 0 42 -21 83
-47z m-4156 -845 c185 -117 341 -214 347 -216 7 -2 165 94 352 213 l341 215
206 -2 205 -3 -541 -335 c-297 -184 -547 -336 -553 -338 -10 -2 -1081 652
-1104 674 -2 2 89 4 204 4 l208 0 335 -212z"/>
<path d="M6543 5075 c-31 -21 -47 -78 -46 -165 1 -128 45 -187 112 -149 43 24
51 54 51 190 0 123 -1 127 -22 133 -38 10 -73 7 -95 -9z"/>
<path d="M3215 5068 c-33 -29 -48 -123 -36 -214 10 -70 25 -98 58 -113 52 -24
93 -9 114 41 21 49 18 214 -4 255 -30 57 -86 70 -132 31z"/>
<path d="M4077 5078 c-20 -16 -37 -60 -37 -99 l0 -29 71 0 72 0 -5 50 c-8 76
-54 113 -101 78z"/>
<path d="M7355 5068 c-33 -29 -48 -123 -36 -214 10 -70 25 -98 58 -113 52 -24
93 -9 114 41 21 49 18 214 -4 255 -30 57 -86 70 -132 31z"/>
<path d="M1380 2625 l0 -375 1208 0 1207 0 -75 50 c-41 27 -298 195 -570 374
l-495 326 -637 0 -638 0 0 -375z"/>
<path d="M3071 2852 c123 -81 378 -248 566 -372 l342 -225 -88 -5 -87 -5 614
-403 613 -404 472 311 c260 170 537 353 617 405 l145 95 -91 3 -91 3 563 370
563 370 -185 3 -186 2 -570 -375 -570 -375 186 -2 185 -3 -519 -342 -519 -341
-519 341 -520 342 183 5 183 5 -567 372 -566 373 -189 0 -189 0 224 -148z"/>
<path d="M6850 2634 c-305 -201 -559 -370 -565 -375 -5 -5 456 -9 1163 -9
l1172 0 0 375 0 375 -607 0 -608 -1 -555 -365z"/>
<path d="M4506 2158 c433 -284 516 -338 525 -338 8 0 640 409 658 426 2 2
-294 4 -659 4 l-663 0 139 -92z"/>
</g>
</svg>
